<svg width="22" height="22" viewBox="0 0 22 22" fill="none" xmlns="http://www.w3.org/2000/svg">
<g clip-path="url(#clip0_201_4)">
<path d="M11 0C8.82441 0 6.69767 0.645139 4.88873 1.85383C3.07979 3.06253 1.66989 4.78049 0.83733 6.79048C0.00476617 8.80047 -0.213071 11.0122 0.211367 13.146C0.635804 15.2798 1.68345 17.2398 3.22183 18.7782C4.76021 20.3166 6.72022 21.3642 8.85401 21.7886C10.9878 22.2131 13.1995 21.9952 15.2095 21.1627C17.2195 20.3301 18.9375 18.9202 20.1462 17.1113C21.3549 15.3023 22 13.1756 22 11C21.9966 8.08367 20.8365 5.28778 18.7744 3.22563C16.7122 1.16347 13.9163 0.00344047 11 0V0ZM11 20C9.21997 20 7.47992 19.4722 5.99987 18.4832C4.51983 17.4943 3.36628 16.0887 2.68509 14.4442C2.0039 12.7996 1.82567 10.99 2.17294 9.24419C2.5202 7.49836 3.37737 5.89471 4.63604 4.63604C5.89472 3.37737 7.49836 2.5202 9.24419 2.17293C10.99 1.82567 12.7996 2.0039 14.4442 2.68508C16.0887 3.36627 17.4943 4.51983 18.4832 5.99987C19.4722 7.47991 20 9.21997 20 11C19.9974 13.3861 19.0483 15.6738 17.361 17.361C15.6738 19.0483 13.3861 19.9974 11 20V20Z" fill="white"/>
<path d="M15.555 10.1679L9.555 6.16791C9.4044 6.06743 9.22935 6.00972 9.04852 6.00093C8.86769 5.99215 8.68786 6.03262 8.52823 6.11803C8.3686 6.20344 8.23516 6.33058 8.14213 6.4859C8.04909 6.64121 7.99997 6.81886 8 6.99991V14.9999C7.99997 15.1809 8.04909 15.3586 8.14213 15.5139C8.23516 15.6692 8.3686 15.7964 8.52823 15.8818C8.68786 15.9672 8.86769 16.0077 9.04852 15.9989C9.22935 15.9901 9.4044 15.9324 9.555 15.8319L15.555 11.8319C15.692 11.7406 15.8043 11.6169 15.8819 11.4717C15.9596 11.3266 16.0002 11.1645 16.0002 10.9999C16.0002 10.8353 15.9596 10.6732 15.8819 10.5281C15.8043 10.3829 15.692 10.2592 15.555 10.1679ZM10 13.1319V8.86891L13.2 10.9999L10 13.1319Z" fill="white"/>
</g>
<defs>
<clipPath id="clip0_201_4">
<rect width="22" height="22" fill="white"/>
</clipPath>
</defs>
</svg>
