<svg width="24" height="22" viewBox="0 0 24 16" fill="none" xmlns="http://www.w3.org/2000/svg">
<path d="M23.458 2.111C23.2946 2.02683 23.1113 1.9893 22.928 2.00253C22.7447 2.01576 22.5686 2.07924 22.419 2.186L17 6.057V3C17 2.20435 16.6839 1.44129 16.1213 0.87868C15.5587 0.316071 14.7956 0 14 0H3C2.20435 0 1.44129 0.316071 0.87868 0.87868C0.31607 1.44129 0 2.20435 0 3L0 13C0 13.7956 0.31607 14.5587 0.87868 15.1213C1.44129 15.6839 2.20435 16 3 16H14C14.7956 16 15.5587 15.6839 16.1213 15.1213C16.6839 14.5587 17 13.7956 17 13V9.943L22.419 13.813C22.5881 13.9351 22.7915 14.0005 23 14C23.1592 13.9996 23.316 13.9619 23.458 13.89C23.6214 13.8058 23.7585 13.6782 23.8541 13.5212C23.9497 13.3642 24.0002 13.1838 24 13V3C24 2.81633 23.9494 2.63621 23.8538 2.4794C23.7582 2.32258 23.6213 2.19512 23.458 2.111ZM15 13C15 13.2652 14.8946 13.5196 14.7071 13.7071C14.5196 13.8946 14.2652 14 14 14H3C2.73478 14 2.48043 13.8946 2.29289 13.7071C2.10536 13.5196 2 13.2652 2 13V3C2 2.73478 2.10536 2.48043 2.29289 2.29289C2.48043 2.10536 2.73478 2 3 2H14C14.2652 2 14.5196 2.10536 14.7071 2.29289C14.8946 2.48043 15 2.73478 15 3V13ZM22 11.057L17.721 8L22 4.943V11.057Z" fill="white"/>
</svg>
