<svg width="22" height="22" viewBox="0 0 22 22" fill="none" xmlns="http://www.w3.org/2000/svg">
<path d="M18.82 0H3.18C2.33694 0.00105846 1.52871 0.336433 0.93257 0.93257C0.336433 1.52871 0.00105846 2.33694 0 3.18V18.82C0.00105846 19.6631 0.336433 20.4713 0.93257 21.0674C1.52871 21.6636 2.33694 21.9989 3.18 22H18.82C19.6631 21.9989 20.4713 21.6636 21.0674 21.0674C21.6636 20.4713 21.9989 19.6631 22 18.82V3.18C21.9989 2.33694 21.6636 1.52871 21.0674 0.93257C20.4713 0.336433 19.6631 0.00105846 18.82 0V0ZM17 7H20V10H17V7ZM15 10H7V2H15V10ZM5 10H2V7H5V10ZM2 12H5V15H2V12ZM7 12H15V20H7V12ZM17 12H20V15H17V12ZM20 3.18V5H17V2H18.82C19.1329 2.00026 19.4329 2.12467 19.6541 2.34591C19.8753 2.56714 19.9997 2.86713 20 3.18V3.18ZM3.18 2H5V5H2V3.18C2.00026 2.86713 2.12467 2.56714 2.34591 2.34591C2.56714 2.12467 2.86713 2.00026 3.18 2V2ZM2 18.82V17H5V20H3.18C2.86713 19.9997 2.56714 19.8753 2.34591 19.6541C2.12467 19.4329 2.00026 19.1329 2 18.82V18.82ZM18.82 20H17V17H20V18.82C19.9997 19.1329 19.8753 19.4329 19.6541 19.6541C19.4329 19.8753 19.1329 19.9997 18.82 20V20Z" fill="white"/>
</svg>
